<svg width="200" height="200" viewBox="0 0 200 200" fill="none" xmlns="http://www.w3.org/2000/svg">
<g clip-path="url(#clip0_201_2)">
<path d="M66.868 39.078H47.01C46.924 39.078 46.839 39.086 46.755 39.101C40.53 40.264 35.567 45.227 34.406 51.452C34.389 51.536 34.382 51.621 34.382 51.706L34.36 85.566C33.773 88.594 31.374 91.026 28.348 91.656L28.215 91.669H25.73C24.962 91.669 24.34 92.291 24.34 93.059V106.939C24.34 107.703 24.955 108.323 25.717 108.33L28.406 108.355C31.423 109.008 33.805 111.456 34.37 114.49L34.381 114.609V148.293C34.381 148.379 34.388 148.464 34.405 148.548C35.567 154.774 40.53 159.736 46.754 160.899C46.838 160.916 46.923 160.922 47.009 160.922H66.866C67.634 160.922 68.256 160.3 68.256 159.532V147.082C68.256 146.314 67.635 145.693 66.869 145.691L55.35 145.67C52.756 145.168 50.563 143.329 49.61 140.85V140.848V108.82C49.61 108.734 49.602 108.648 49.586 108.564C48.976 105.301 47.275 102.259 44.798 99.999C47.275 97.738 48.976 94.697 49.586 91.435C49.602 91.351 49.61 91.265 49.61 91.179V59.152C50.571 56.652 52.788 54.805 55.407 54.319L55.525 54.308H66.866C67.634 54.308 68.256 53.686 68.256 52.918V40.468C68.258 39.7 67.635 39.078 66.868 39.078Z" fill="#ED2224"/>
<path d="M174.283 91.669L171.595 91.644C168.574 90.99 166.193 88.543 165.629 85.508L165.618 85.389V51.708C165.618 51.623 165.61 51.537 165.595 51.453C164.433 45.228 159.47 40.265 153.244 39.102C153.16 39.086 153.075 39.079 152.989 39.079H133.131C132.362 39.079 131.741 39.701 131.741 40.469V52.92C131.741 53.687 132.362 54.308 133.129 54.31L144.648 54.331C147.243 54.833 149.435 56.672 150.388 59.153V91.18C150.388 91.266 150.396 91.351 150.411 91.436C151.02 94.698 152.723 97.74 155.2 100.001C152.721 102.262 151.02 105.305 150.411 108.566C150.395 108.65 150.388 108.736 150.388 108.822V140.849C149.427 143.347 147.209 145.195 144.591 145.683L144.472 145.693H133.131C132.362 145.693 131.741 146.314 131.741 147.084V159.534C131.741 160.302 132.362 160.924 133.131 160.924H152.989C153.075 160.924 153.16 160.916 153.244 160.901C159.47 159.739 164.432 154.776 165.595 148.55C165.611 148.466 165.618 148.381 165.618 148.296L165.639 114.436C166.225 111.409 168.622 108.977 171.651 108.346L171.784 108.332H174.268C175.036 108.332 175.658 107.71 175.658 106.941V93.059C175.659 92.297 175.046 91.677 174.283 91.669Z" fill="#ED2224"/>
<path d="M135.961 68.1909H126.186C125.235 68.1909 124.401 68.7909 124.083 69.6929V107.328L97.063 68.7389C96.652 68.3849 96.139 68.1919 95.61 68.1919H83.658C82.422 68.1919 81.417 69.1979 81.417 70.4339C81.417 70.6809 81.463 70.9319 81.552 71.1819L123.591 131.238C124.004 131.607 124.529 131.808 125.073 131.808H135.961C137.195 131.808 138.203 130.802 138.203 129.568V70.4339C138.203 69.1969 137.195 68.1909 135.961 68.1909Z" fill="#FFC808"/>
<path d="M115.184 88.0969C116.418 88.0969 117.425 87.0919 117.425 85.8559V70.4339C117.425 69.1979 116.418 68.1919 115.184 68.1919H105.547C104.313 68.1919 103.307 69.1979 103.307 70.4339V72.6629L113.729 87.5489C114.141 87.9019 114.652 88.0969 115.184 88.0969Z" fill="#FFC808"/>
<path d="M74.888 68.1909H64.038C62.803 68.1909 61.797 69.1969 61.797 70.4329V129.566C61.797 130.801 62.802 131.808 64.038 131.808H73.926C74.883 131.808 75.712 131.138 75.915 130.207V92.8259L102.698 131.075C103.132 131.549 103.714 131.808 104.342 131.808H115.184C116.418 131.808 117.425 130.801 117.425 129.566V127.462L103.305 107.295L102.295 105.883L76.299 68.7579C75.917 68.3919 75.417 68.1909 74.888 68.1909Z" fill="#FFC808"/>
</g>
<defs>
<clipPath id="clip0_201_2">
<rect width="200" height="200" fill="white"/>
</clipPath>
</defs>
</svg>
